#!OML:ASF E:\acrobat2\Project_11_07_03\Capture day 1\Session 1\Acrobat.ASF
:FULLY-SPECIFIED
:DEGREES
249
root 12.8548 20.4834 10.2062 3.99604 4.85703 1.12553
lowerback -5.14061 0.487679 0.189361
upperback -1.41109 0.667899 -1.53437
thorax 1.45158 0.334507 -1.63989
lowerneck -0.657943 -2.91377 -0.520849
upperneck 5.3795 -4.01931 2.78635
head 1.86105 -1.95642 0.885642
rclavicle 2.08724e-015 -9.54166e-015
rhumerus -37.5726 -3.61441 -86.4374
rradius 27.7345
rwrist 13.2404
rhand -7.62482 -36.1541
rfingers 7.12502
rthumb 18.2698 -65.3161
lclavicle 2.08724e-015 -9.54166e-015
lhumerus -31.6036 -12.9885 89.3344
lradius 22.4527
lwrist 6.74291
lhand -2.57425 -16.5659
lfingers 7.12502
lthumb 23.1225 12.0665
rfemur -5.46408 13.0868 17.6162
rtibia 23.3167
rfoot -40.6199 -19.0495
rtoes 15.8193
lfemur -18.5889 -3.82445 -14.7891
ltibia 39.3833
lfoot -31.2582 -15.4281
ltoes 0.6627
250
root 12.852 20.4801 10.2078 3.97854 4.85912 1.12155
lowerback -5.0763 0.448692 0.220686
upperback -1.40251 0.614425 -1.55644
thorax 1.42345 0.307774 -1.68399
lowerneck -0.80603 -2.89042 -0.503671
upperneck 5.62165 -3.9921 2.72526
head 1.96322 -1.94034 0.861034
rclavicle -5.42931e-015 1.27222e-014
rhumerus -38.0226 -3.5661 -86.3156
rradius 28.1325
rwrist 14.8962
rhand -8.00741 -35.8237
rfingers 7.12502
rthumb 17.9017 -65.0198
lclavicle -5.42931e-015 1.27222e-014
lhumerus -31.7883 -13.5325 89.1785
lradius 22.3774
lwrist 6.47114
lhand -2.94942 -17.2058
lfingers 7.12502
lthumb 22.7625 11.4713
rfemur -5.43678 13.0607 17.6181
rtibia 23.3236
rfoot -40.7146 -18.7628
rtoes 16.4011
lfemur -18.5632 -3.9757 -14.7786
ltibia 39.3734
lfoot -31.2733 -15.3316
ltoes 0.860075
251
root 12.8484 20.477 10.2095 3.96264 4.86086 1.11891
lowerback -5.00827 0.415741 0.255728
upperback -1.39984 0.568858 -1.58521
thorax 1.38742 0.284926 -1.73652
lowerneck -0.929621 -2.86644 -0.491008
upperneck 5.89969 -3.96484 2.67034
head 2.07355 -1.92415 0.839355
rclavicle -2.08413e-014 5.96354e-015
rhumerus -38.4183 -3.4276 -86.1359
rradius 28.1911
rwrist 16.4425
rhand -8.42192 -35.6578
rfingers 7.12502
rthumb 17.5028 -64.8899
lclavicle -2.08413e-014 5.96354e-015
lhumerus -32.0529 -14.2099 88.9867
lradius 22.2629
lwrist 6.00762
lhand -3.45908 -17.8315
lfingers 7.12502
lthumb 22.2733 10.9049
rfemur -5.41319 13.0457 17.6205
rtibia 23.3292
rfoot -40.8125 -18.4905
rtoes 16.909
lfemur -18.5419 -4.10798 -14.7658
ltibia 39.362
lfoot -31.2551 -15.2452
ltoes 1.0681
252
root 12.8441 20.4745 10.2115 3.95197 4.85975 1.13188
lowerback -4.94401 0.392931 0.273169
upperback -1.39657 0.537806 -1.61808
thorax 1.35437 0.269302 -1.78239
lowerneck -1.03932 -2.84478 -0.499891
upperneck 6.21066 -3.94113 2.62538
head 2.19366 -1.90986 0.824497
rclavicle 6.53505e-015 5.1684e-015
rhumerus -38.7559 -3.13641 -85.9076
rradius 27.9003
rwrist 17.7021
rhand -8.82925 -35.7583
rfingers 7.12502
rthumb 17.1108 -65.0249
lclavicle 6.53505e-015 5.1684e-015
lhumerus -32.3822 -15.0039 88.7573
lradius 22.0917
lwrist 5.39865
lhand -4.04718 -18.3996
lfingers 7.12502
lthumb 21.7087 10.4032
rfemur -5.40142 13.0316 17.6074
rtibia 23.3416
rfoot -40.882 -18.2664
rtoes 17.2338
lfemur -18.523 -4.23121 -14.7671
ltibia 39.3457
lfoot -31.2146 -15.1621
ltoes 1.27339
253
root 12.8397 20.473 10.2135 3.94982 4.86275 1.1847
lowerback -4.88091 0.380166 0.24937
upperback -1.38381 0.522403 -1.65834
thorax 1.33189 0.261529 -1.81166
lowerneck -1.16894 -2.82602 -0.544198
upperneck 6.56106 -3.92203 2.59921
head 2.33256 -1.89782 0.821174
rclavicle -5.65915e-015 -8.34896e-015
rhumerus -39.0342 -2.64274 -85.644
rradius 27.2846
rwrist 18.5251
rhand -9.16813 -36.1851
rfingers 7.12502
rthumb 16.7846 -65.4796
lclavicle -5.65915e-015 -8.34896e-015
lhumerus -32.7658 -15.894 88.4834
lradius 21.8587
lwrist 4.73167
lhand -4.65958 -18.8888
lfingers 7.12502
lthumb 21.1205 9.98082
rfemur -5.4071 12.9582 17.5431
rtibia 23.3647
rfoot -40.8695 -18.0802
rtoes 17.3122
lfemur -18.5063 -4.35893 -14.8133
ltibia 39.3232
lfoot -31.1558 -15.0837
ltoes 1.50317
254
root 12.8357 20.4725 10.2149 3.95734 4.8786 1.27343
lowerback -4.81109 0.374422 0.187081
upperback -1.35852 0.518364 -1.70368
thorax 1.31862 0.259484 -1.82382
lowerneck -1.30189 -2.81295 -0.61301
upperneck 6.90992 -3.91042 2.59102
head 2.47369 -1.88976 0.827639
rclavicle 2.15557e-015 -2.3059e-014
rhumerus -39.2858 -1.9166 -85.3575
rradius 26.4078
rwrist 18.848
rhand -9.38938 -36.904
rfingers 7.12502
rthumb 16.5716 -66.2164
lclavicle 2.15557e-015 -2.3059e-014
lhumerus -33.2073 -16.8323 88.143
lradius 21.576
lwrist 4.07861
lhand -5.23585 -19.2486
lfingers 7.12502
lthumb 20.5668 9.68187
rfemur -5.43295 12.7796 17.4247
rtibia 23.3975
rfoot -40.7399 -17.9036
rtoes 17.1568
lfemur -18.4964 -4.4943 -14.9016
ltibia 39.2975
lfoot -31.0719 -15.0155
ltoes 1.79823
255
root 12.832 20.4731 10.2153 3.97947 4.90804 1.37589
lowerback -4.73076 0.37315 0.102307
upperback -1.31561 0.52135 -1.7451
thorax 1.31756 0.261046 -1.8189
lowerneck -1.41572 -2.80991 -0.676165
upperneck 7.1931 -3.91029 2.58089
head 2.59027 -1.8882 0.832777
rclavicle 7.75881e-015 -2.78299e-015
rhumerus -39.7135 -1.3857 -84.835
rradius 25.664
rwrist 19.171
rhand -9.37555 -37.8339
rfingers 7.12502
rthumb 16.5849 -67.1453
lclavicle 7.75881e-015 -2.78299e-015
lhumerus -33.6916 -17.6988 87.6752
lradius 21.2207
lwrist 3.39493
lhand -5.79025 -19.5365
lfingers 7.12502
lthumb 20.034 9.45072
rfemur -5.48242 12.4897 17.2732
rtibia 23.4299
rfoot -40.4968 -17.6908
rtoes 16.8963
lfemur -18.5079 -4.62415 -15.0065
ltibia 39.2761
lfoot -30.9601 -14.9521
ltoes 2.11271
256
root 12.8283 20.4753 10.2137 4.02599 4.94866 1.47163
lowerback -4.63327 0.374434 0.00959265
upperback -1.25339 0.527909 -1.77443
thorax 1.32666 0.264476 -1.7969
lowerneck -1.50564 -2.81402 -0.718783
upperneck 7.37086 -3.91736 2.56648
head 2.66717 -1.89099 0.833515
rclavicle 5.77718e-016 -1.70955e-014
rhumerus -40.183 -0.792574 -84.1835
rradius 24.8268
rwrist 19.3466
rhand -9.25245 -38.7799
rfingers 7.12502
rthumb 16.7034 -68.0812
lclavicle 5.77718e-016 -1.70955e-014
lhumerus -34.2064 -18.3875 87.0209
lradius 20.8065
lwrist 2.66586
lhand -6.36561 -19.7764
lfingers 7.12502
lthumb 19.4809 9.26769
rfemur -5.56298 12.1092 17.1097
rtibia 23.4489
rfoot -40.1727 -17.3869
rtoes 16.6894
lfemur -18.5617 -4.73081 -15.1023
ltibia 39.268
lfoot -30.823 -14.87
ltoes 2.29955
257
root 12.8245 20.4794 10.2097 4.1054 4.99796 1.53655
lowerback -4.51223 0.380461 -0.0673385
upperback -1.17433 0.539605 -1.78457
thorax 1.33996 0.270533 -1.76383
lowerneck -1.57221 -2.82259 -0.771565
upperneck 7.43377 -3.9294 2.58545
head 2.70268 -1.89671 0.847261
rclavicle 7.70912e-015 -1.59028e-015
rhumerus -40.8158 -0.511586 -83.1917
rradius 24.1233
rwrist 19.8918
rhand -8.9688 -39.6006
rfingers 7.12502
rthumb 16.9765 -68.8787
lclavicle 7.70912e-015 -1.59028e-015
lhumerus -34.7405 -18.8629 86.1458
lradius 20.3432
lwrist 1.94976
lhand -6.90947 -19.8931
lfingers 7.12502
lthumb 18.9579 9.20307
rfemur -5.68412 11.664 16.9613
rtibia 23.4481
rfoot -39.784 -16.9945
rtoes 16.5486
lfemur -18.6754 -4.80553 -15.1582
ltibia 39.2778
lfoot -30.6613 -14.7529
ltoes 2.25159
258
root 12.8209 20.4858 10.203 4.22134 5.05218 1.58232
lowerback -4.35969 0.394612 -0.133993
upperback -1.07594 0.561218 -1.78007
thorax 1.35568 0.281585 -1.72111
lowerneck -1.64311 -2.83624 -0.840875
upperneck 7.4013 -3.94773 2.64072
head 2.70854 -1.90567 0.875607
rclavicle 1.06417e-014 6.36111e-015
rhumerus -41.5521 -0.400022 -81.9143
rradius 23.444
rwrist 20.7224
rhand -8.67871 -40.2111
rfingers 7.12502
rthumb 17.2557 -69.465
lclavicle 1.06417e-014 6.36111e-015
lhumerus -35.2721 -19.1143 85.0265
lradius 19.8315
lwrist 1.29583
lhand -7.40018 -19.8659
lfingers 7.12502
lthumb 18.4859 9.27576
rfemur -5.85156 11.1299 16.8128
rtibia 23.4299
rfoot -39.3047 -16.5398
rtoes 16.4248
lfemur -18.8543 -4.85123 -15.1863
ltibia 39.3038
lfoot -30.4656 -14.6164
ltoes 2.02705
259
root 12.8177 20.4941 10.1934 4.37442 5.10823 1.63626
lowerback -4.16858 0.413595 -0.20936
upperback -0.956253 0.589276 -1.77082
thorax 1.37163 0.295834 -1.66849
lowerneck -1.73721 -2.84976 -0.906249
upperneck 7.29255 -3.96491 2.70868
head 2.69333 -1.91398 0.907339
rclavicle -4.22417e-016 4.77083e-015
rhumerus -42.3698 -0.415687 -80.3673
rradius 22.7486
rwrist 21.8205
rhand -8.47115 -40.6167
rfingers 7.12502
rthumb 17.4555 -69.853
lclavicle -4.22417e-016 4.77083e-015
lhumerus -35.7845 -19.1308 83.6447
lradius 19.2661
lwrist 0.693396
lhand -7.82686 -19.6403
lfingers 7.12502
lthumb 18.0754 9.53985
rfemur -6.07073 10.4874 16.6329
rtibia 23.4059
rfoot -38.7231 -16.0356
rtoes 16.37
lfemur -19.0949 -4.8743 -15.218
ltibia 39.3387
lfoot -30.2191 -14.4975
ltoes 1.79346
260
root 12.8147 20.5041 10.1804 4.56702 5.15536 1.6936
lowerback -3.9331 0.435285 -0.286197
upperback -0.818569 0.620387 -1.75573
thorax 1.38108 0.311549 -1.60927
lowerneck -1.86755 -2.85186 -0.970008
upperneck 7.13081 -3.96587 2.78519
head 2.66692 -1.91404 0.941727
rclavicle 1.22998e-015 -1.86858e-014
rhumerus -43.2669 -0.560308 -78.5469
rradius 22.0367
rwrist 23.1478
rhand -8.3596 -40.9198
rfingers 7.12502
rthumb 17.5628 -70.1465
lclavicle 1.22998e-015 -1.86858e-014
lhumerus -36.2744 -18.9149 82.0003
lradius 18.642
lwrist 0.11946
lhand -8.19561 -19.1709
lfingers 7.12502
lthumb 17.7206 10.0417
rfemur -6.35655 9.79274 16.4351
rtibia 23.3948
rfoot -38.0642 -15.5404
rtoes 16.3769
lfemur -19.3975 -4.88498 -15.2469
ltibia 39.3738
lfoot -29.9176 -14.407
ltoes 1.66473
261
root 12.8118 20.5157 10.163 4.80382 5.19264 1.74861
lowerback -3.63751 0.458386 -0.354728
upperback -0.671526 0.651994 -1.73532
thorax 1.36633 0.327422 -1.54979
lowerneck -2.02108 -2.85219 -1.0461
upperneck 6.92049 -3.96309 2.87223
head 2.62913 -1.91242 0.981587
rclavicle 1.61513e-015 -8.74653e-015
rhumerus -44.2449 -0.826387 -76.4606
rradius 21.309
rwrist 24.5935
rhand -8.2994 -41.2621
rfingers 7.12502
rthumb 17.6207 -70.4836
lclavicle 1.61513e-015 -8.74653e-015
lhumerus -36.752 -18.4612 80.0914
lradius 17.9528
lwrist -0.490401
lhand -8.53782 -18.4985
lfingers 7.12502
lthumb 17.3913 10.7435
rfemur -6.72516 9.10586 16.2347
rtibia 23.4109
rfoot -37.3715 -15.0977
rtoes 16.4742
lfemur -19.7695 -4.89295 -15.2652
ltibia 39.4052
lfoot -29.5587 -14.3443
ltoes 1.7136
262
root 12.8091 20.529 10.1404 5.09013 5.23916 1.79329
lowerback -3.27306 0.478117 -0.394725
upperback -0.525142 0.676744 -1.71429
thorax 1.31229 0.339864 -1.50681
lowerneck -2.15478 -2.85405 -1.0891
upperneck 6.63452 -3.95796 2.90524
head 2.56002 -1.91115 0.998834
rclavicle -5.13113e-015 3.57812e-015
rhumerus -45.3176 -1.19364 -74.1308
rradius 20.5821
rwrist 26.019
rhand -8.21266 -41.7299
rfingers 7.12502
rthumb 17.7042 -70.9439
lclavicle -5.13113e-015 3.57812e-015
lhumerus -37.2447 -17.8019 77.9335
lradius 17.2159
lwrist -1.20619
lhand -8.85944 -17.6241
lfingers 7.12502
lthumb 17.0817 11.6449
rfemur -7.18747 8.44793 16.0434
rtibia 23.4605
rfoot -36.6874 -14.6981
rtoes 16.7672
lfemur -20.224 -4.89613 -15.2639
ltibia 39.4362
lfoot -29.125 -14.3211
ltoes 1.9974
263
root 12.8063 20.5443 10.1123 5.43277 5.30446 1.80661
lowerback -2.84636 0.490371 -0.381745
upperback -0.383384 0.688584 -1.68814
thorax 1.21873 0.345992 -1.48962
lowerneck -2.23185 -2.85466 -1.08282
upperneck 6.24138 -3.94587 2.86251
head 2.44152 -1.90869 0.984446
rclavicle 1.35298e-014 -1.92821e-014
rhumerus -46.4829 -1.62947 -71.581
rradius 19.8657
rwrist 27.3038
rhand -8.08829 -42.3285
rfingers 7.12502
rthumb 17.8239 -71.5317
lclavicle 1.35298e-014 -1.92821e-014
lhumerus -37.7695 -16.9445 75.5307
lradius 16.418
lwrist -2.15008
lhand -9.19182 -16.6515
lfingers 7.12502
lthumb 16.7618 12.6449
rfemur -7.75445 7.84399 15.8867
rtibia 23.5438
rfoot -36.0504 -14.3142
rtoes 17.3323
lfemur -20.7788 -4.88651 -15.2194
ltibia 39.4774
lfoot -28.6185 -14.3149
ltoes 2.41005
